<?xml version="1.0" standalone="no"?>
<!DOCTYPE svg PUBLIC "-//W3C//DTD SVG 20010904//EN"
 "http://www.w3.org/TR/2001/REC-SVG-20010904/DTD/svg10.dtd">
<svg version="1.0" xmlns="http://www.w3.org/2000/svg"
 width="94.000000pt" height="131.000000pt" viewBox="0 0 94.000000 131.000000"
 preserveAspectRatio="xMidYMid meet">

<g transform="translate(0.000000,131.000000) scale(0.100000,-0.100000)"
fill="#000000" stroke="none">
<path d="M50 1080 c0 -146 3 -190 13 -190 16 0 367 351 367 368 0 9 -45 12
-190 12 l-190 0 0 -190z m320 157 c0 -1 -65 -67 -145 -147 l-145 -145 0 148 0
147 145 0 c80 0 145 -1 145 -3z"/>
<path d="M282 1037 l-232 -232 0 -153 c0 -83 3 -152 8 -152 4 0 112 105 240
233 l232 232 0 153 c0 83 -3 152 -8 152 -4 0 -112 -105 -240 -233z m8 -262
l-210 -210 0 110 0 110 208 208 207 207 3 -107 3 -107 -211 -211z"/>
<path d="M560 1107 l0 -162 -255 -255 -255 -255 0 -177 0 -178 160 0 160 0 0
163 0 162 255 255 255 255 0 177 0 178 -160 0 -160 0 0 -163z m290 -20 l0
-152 -255 -255 -255 -255 0 -157 0 -158 -130 0 -130 0 0 153 0 152 255 255
255 255 0 157 0 158 130 0 130 0 0 -153z"/>
<path d="M632 617 l-232 -232 0 -153 c0 -83 3 -152 8 -152 4 0 112 105 240
233 l232 232 0 153 c0 83 -3 152 -8 152 -4 0 -112 -105 -240 -233z m8 -262
l-210 -210 0 110 0 110 208 208 207 207 3 -107 3 -107 -211 -211z"/>
<path d="M677 282 c-97 -97 -177 -183 -177 -190 0 -9 45 -12 190 -12 l190 0 0
190 c0 146 -3 190 -13 190 -7 0 -92 -80 -190 -178z m173 -27 l0 -145 -147 0
-148 0 145 145 c80 80 146 145 147 145 2 0 3 -65 3 -145z"/>
</g>
</svg>
